<svg width="42" height="55" viewBox="0 0 42 55" fill="none" xmlns="http://www.w3.org/2000/svg">
<g id="Group">
<path id="Vector" d="M13.0374 28.9254V31.5432H23.457V28.9254H26.0747V31.5432H36.4943V28.9254H39.112V47.1811H41.7126V18.5059H39.112V15.9053H36.4943V13.2875H33.8937V10.6869H26.0747V5.4686H23.457V10.6869H15.638V13.2875H13.0374V15.9053H10.4197V18.5059H7.81909V47.1811H10.4197V28.9254H13.0374ZM20.8564 15.9053H23.457V13.2875H26.0747V15.9053H28.6753V21.1065H26.0747V23.7242H23.457V21.1065H20.8564V15.9053Z" fill="#182232"/>
<path id="Vector_2" d="M36.4922 47.1814H39.1099V49.7991H36.4922V47.1814Z" fill="#182232"/>
<path id="Vector_3" d="M33.8936 39.3621H36.4942V44.5804H33.8936V39.3621Z" fill="#182232"/>
<path id="Vector_4" d="M31.2744 49.7983H36.4927V52.399H31.2744V49.7983Z" fill="#182232"/>
<path id="Vector_5" d="M31.2744 44.5806H33.8921V47.1812H31.2744V44.5806Z" fill="#182232"/>
<path id="Vector_6" d="M26.0742 47.1814H31.2754V49.7991H26.0742V47.1814Z" fill="#182232"/>
<path id="Vector_7" d="M18.2388 52.3999H31.2761V55.0005H18.2388V52.3999Z" fill="#182232"/>
<path id="Vector_8" d="M18.2388 2.86768H23.4571V5.46829H18.2388V2.86768Z" fill="#182232"/>
<path id="Vector_9" d="M13.0371 49.7983H18.2383V52.399H13.0371V49.7983Z" fill="#182232"/>
<path id="Vector_10" d="M13.0371 5.46851H18.2383V8.06912H13.0371V5.46851Z" fill="#182232"/>
<path id="Vector_11" d="M10.4194 47.1814H13.0372V49.7991H10.4194V47.1814Z" fill="#182232"/>
<path id="Vector_12" d="M10.4194 8.06934H13.0372V10.6871H10.4194V8.06934Z" fill="#182232"/>
<path id="Vector_13" d="M2.59863 10.6863H10.4176V13.2869H2.59863V10.6863Z" fill="#182232"/>
<path id="Vector_14" d="M5.21777 0.25H7.81839V2.86772H5.21777V0.25Z" fill="#182232"/>
<path id="Vector_15" d="M2.59863 2.86768H5.21636V5.46829H2.59863V2.86768Z" fill="#182232"/>
<path id="Vector_16" d="M0 5.4686H2.60061V10.6869H0V5.4686Z" fill="#182232"/>
</g>
</svg>
