<svg width="60" height="54" viewBox="0 0 60 54" fill="none" xmlns="http://www.w3.org/2000/svg">
<path d="M59.092 31.5776H56.2852V34.3919H59.092V31.5776Z" fill="#182232"/>
<path d="M56.2865 28.7827H50.6543V31.5786H56.2865V28.7827Z" fill="#182232"/>
<path d="M53.4609 23.1729H50.6541V25.9872H53.4609V23.1729Z" fill="#182232"/>
<path d="M47.8473 51.2036H45.022V53.9995H47.8473V51.2036Z" fill="#182232"/>
<path d="M45.0207 48.4087H42.2139V51.2046H45.0207V48.4087Z" fill="#182232"/>
<path d="M42.2122 45.5962H36.5801V48.4105H42.2122V45.5962Z" fill="#182232"/>
<path d="M39.4054 39.9836H36.5801V42.798H39.4054V39.9836Z" fill="#182232"/>
<path d="M36.5803 28.7827H33.7734V34.3929H36.5803V28.7827Z" fill="#182232"/>
<path d="M36.58 42.7991H22.5088V45.595H36.58V42.7991Z" fill="#182232"/>
<path d="M33.7749 37.188H25.3359V39.9839H33.7749V37.188Z" fill="#182232"/>
<path d="M25.3341 28.7827H22.5088V34.3929H25.3341V28.7827Z" fill="#182232"/>
<path d="M22.509 39.9836H19.7021V42.798H22.509V39.9836Z" fill="#182232"/>
<path d="M22.5107 45.5955H16.897V48.4098H22.5107V45.5955Z" fill="#182232"/>
<path d="M16.8966 48.4087H14.0713V51.2046H16.8966V48.4087Z" fill="#182232"/>
<path d="M14.0686 51.2036H11.2617V53.9995H14.0686V51.2036Z" fill="#182232"/>
<path d="M42.2139 25.9867V20.3766H39.4071V17.5623H36.5818V11.9704H39.4071V9.15613H50.6529V11.9704H53.4598V23.1724H56.2851V6.36022H53.4598V3.54591H50.6529V0.75H39.4071V3.54591H36.5818V6.36022H33.7749V14.7664H25.3359V6.36022H22.5106V3.54591H19.7037V0.75H8.43938V3.54591H5.63253V6.36022H2.82568V23.1724H5.63253V11.9704H8.43938V9.15613H19.7037V11.9704H22.5106V17.5623H19.7037V20.3766H16.8969V25.9867H8.43938V28.7826H16.8969V39.9846H19.7037V25.9867H22.5106V23.1724H36.5818V25.9867H39.4071V39.9846H42.2139V28.7826H50.6529V25.9867H42.2139Z" fill="#182232"/>
<path d="M8.43746 23.1729H5.63062V25.9872H8.43746V23.1729Z" fill="#182232"/>
<path d="M8.43938 28.7827H2.82568V31.5786H8.43938V28.7827Z" fill="#182232"/>
<path d="M2.82531 31.5776H0V34.3919H2.82531V31.5776Z" fill="#182232"/>
</svg>
