<svg width="43" height="43" viewBox="0 0 43 43" fill="none" xmlns="http://www.w3.org/2000/svg">
<g id="Group">
<path id="Vector" d="M42.9166 28.7209H40.8646V30.7649H42.9166V28.7209Z" fill="#182232"/>
<path id="Vector_2" d="M40.8644 18.5544H32.6969V10.4053H34.7354V8.37476H32.6969V6.33081H10.2195V8.37476H8.16752V10.4053H6.129V12.4359H4.09047V14.4799H2.03853V16.5105H0V22.6156H2.03853V20.585H12.258V24.6595H14.2965V28.7207H16.3485V32.7952H18.387V36.8698H20.4389V20.585H28.6065V24.6595H26.5679V28.7207H24.516V32.7952H22.4775V36.8698H20.4389V38.9003H18.387V40.9443H20.4389V42.9749H22.4775V40.9443H24.516V38.9003H26.5679V36.8698H28.6065V34.8392H30.6584V32.7952H32.6969V30.7646H34.7354V28.7207H36.7874V26.6901H38.8259V24.6595H40.8644V22.6156H42.9164V16.5105H40.8644V18.5544ZM28.6065 18.5544H14.2965V16.5105H12.258V8.37476H20.4389V10.4053H22.4775V12.4359H24.516V14.4799H26.5679V16.5105H28.6065V18.5544Z" fill="#182232"/>
<path id="Vector_3" d="M40.8657 34.8396H38.8271V36.8702H40.8657V34.8396Z" fill="#182232"/>
<path id="Vector_4" d="M40.8657 14.4805H38.8271V16.5111H40.8657V14.4805Z" fill="#182232"/>
<path id="Vector_5" d="M38.8266 36.8706H36.7881V38.9012H38.8266V36.8706Z" fill="#182232"/>
<path id="Vector_6" d="M38.8266 32.7954H36.7881V34.8394H38.8266V32.7954Z" fill="#182232"/>
<path id="Vector_7" d="M38.8266 12.4363H36.7881V14.4802H38.8266V12.4363Z" fill="#182232"/>
<path id="Vector_8" d="M36.7863 4.30029H34.7344V6.33088H36.7863V8.37483H38.8248V6.33088H40.8634V4.30029H38.8248V2.25635H36.7863V4.30029Z" fill="#182232"/>
<path id="Vector_9" d="M36.7863 34.8396H34.7344V36.8702H36.7863V34.8396Z" fill="#182232"/>
<path id="Vector_10" d="M36.7863 10.4053H34.7344V12.4359H36.7863V10.4053Z" fill="#182232"/>
<path id="Vector_11" d="M32.6977 40.9451H30.6592V42.9757H32.6977V40.9451Z" fill="#182232"/>
<path id="Vector_12" d="M32.6977 0.226074H30.6592V2.25666H32.6977V0.226074Z" fill="#182232"/>
<path id="Vector_13" d="M20.4387 10.4053H18.3867V12.4359H20.4387V10.4053Z" fill="#182232"/>
<path id="Vector_14" d="M20.4387 2.25635H18.3867V4.30029H20.4387V2.25635Z" fill="#182232"/>
<path id="Vector_15" d="M18.3876 36.8706H16.3491V38.9012H18.3876V36.8706Z" fill="#182232"/>
<path id="Vector_16" d="M18.3876 12.4363H16.3491V14.4802H18.3876V12.4363Z" fill="#182232"/>
<path id="Vector_17" d="M16.3488 34.8396H14.2969V36.8702H16.3488V34.8396Z" fill="#182232"/>
<path id="Vector_18" d="M16.3489 14.4805H14.297V16.5111H16.3489V14.4805Z" fill="#182232"/>
<path id="Vector_19" d="M14.2963 38.9001H12.2578V40.9441H14.2963V38.9001Z" fill="#182232"/>
<path id="Vector_20" d="M14.2963 32.7954H12.2578V34.8394H14.2963V32.7954Z" fill="#182232"/>
<path id="Vector_21" d="M12.2573 30.7651H10.2188V32.7957H12.2573V30.7651Z" fill="#182232"/>
<path id="Vector_22" d="M10.2199 28.7209H8.16797V30.7649H10.2199V28.7209Z" fill="#182232"/>
<path id="Vector_23" d="M8.16743 26.6907H6.12891V28.7213H8.16743V26.6907Z" fill="#182232"/>
<path id="Vector_24" d="M8.16597 4.30127H6.12744V6.33186H8.16597V4.30127Z" fill="#182232"/>
<path id="Vector_25" d="M4.091 32.7954V34.8394H2.03906V36.8699H4.091V38.9005H6.12953V36.8699H8.16806V34.8394H6.12953V32.7954H4.091Z" fill="#182232"/>
<path id="Vector_26" d="M6.12837 24.6597H4.08984V26.6903H6.12837V24.6597Z" fill="#182232"/>
<path id="Vector_27" d="M6.12837 6.33081H4.08984V8.37476H6.12837V6.33081Z" fill="#182232"/>
<path id="Vector_28" d="M6.12837 2.25635H4.08984V4.30029H6.12837V2.25635Z" fill="#182232"/>
<path id="Vector_29" d="M4.091 22.616H2.03906V24.66H4.091V22.616Z" fill="#182232"/>
<path id="Vector_30" d="M4.091 4.30109H2.03906V6.33167H4.091V4.30109Z" fill="#182232"/>
<path id="Vector_31" d="M2.03853 28.7209H0V30.7649H2.03853V28.7209Z" fill="#182232"/>
</g>
</svg>
