<svg width="60" height="44" viewBox="0 0 60 44" fill="none" xmlns="http://www.w3.org/2000/svg">
<path d="M2.85 37.3938H57.1312V40.2438H60V34.5438H54.2812V3.1H51.4125V34.5438H48.5625V31.675H45.7125V34.5438H28.5562V31.675H25.7062V34.5438H22.8562V3.1H51.4125V0.25H8.56875V3.1H19.9875V14.5375H8.56875V3.1H5.7V34.5438H0V40.2438H2.85V37.3938ZM8.56875 20.2563H19.9875V31.675H8.56875V20.2563Z" fill="#182232"/>
<path d="M57.1318 40.2439H2.85059V43.1126H57.1318V40.2439Z" fill="#182232"/>
<path d="M45.7119 28.8254H39.9932V31.6754H45.7119V28.8254Z" fill="#182232"/>
<path d="M42.8432 23.106H39.9932V25.956H42.8432V23.106Z" fill="#182232"/>
<path d="M39.9932 25.9558H34.2744V28.8246H39.9932V25.9558Z" fill="#182232"/>
<path d="M34.2744 28.8254H28.5557V31.6754H34.2744V28.8254Z" fill="#182232"/>
<path d="M34.2753 23.106H31.4253V25.956H34.2753V23.106Z" fill="#182232"/>
<path d="M42.8432 17.3874V23.1061H45.7119V14.5374H42.8432V11.6686H39.9932V8.8186H34.2744V11.6686H31.4244V14.5374H28.5557V23.1061H31.4244V17.3874H42.8432Z" fill="#182232"/>
<path d="M17.1372 25.9558H11.4185V28.8246H17.1372V25.9558Z" fill="#182232"/>
<path d="M17.1372 8.8186H11.4185V11.6686H17.1372V8.8186Z" fill="#182232"/>
</svg>
