<svg width="45" height="45" viewBox="0 0 45 45" fill="none" xmlns="http://www.w3.org/2000/svg">
<g id="Entertainment Events Hobbies Reward Winner Talent" clip-path="url(#clip0_23_204)">
<g id="Group">
<path id="Vector" d="M32.1469 25.7065V19.2799H12.8531V25.7065H0V45.0002H45V25.7065H32.1469ZM12.8531 42.8487H2.15156V27.858H12.8531V42.8487ZM29.9953 42.8487H15.0047V21.4315H29.9953V42.8487ZM42.8625 42.8487H32.1469V27.858H42.8625V42.8487Z" fill="#182232"/>
<path id="Vector_2" d="M40.7111 29.9955H34.2845V32.147H38.5736V34.2845H34.2845V36.422H38.5736V38.5736H34.2845V40.7111H40.7111V29.9955Z" fill="#182232"/>
<path id="Vector_3" d="M40.7119 8.56433H36.4369V10.7159H40.7119V8.56433Z" fill="#182232"/>
<path id="Vector_4" d="M36.4361 0H34.2845V2.1375H36.4361V0Z" fill="#182232"/>
<path id="Vector_5" d="M34.2846 2.1377H32.1471V4.28926H34.2846V2.1377Z" fill="#182232"/>
<path id="Vector_6" d="M25.7206 32.147H23.5691V23.5688H19.2941V25.7063H21.4316V32.147H19.2941V34.2845H25.7206V32.147Z" fill="#182232"/>
<path id="Vector_7" d="M23.5688 0H21.4313V4.28906H23.5688V0Z" fill="#182232"/>
<path id="Vector_8" d="M12.853 6.42664V14.9907H15.0046V17.1423H29.9952V14.9907H32.1468V6.42664H29.9952V8.56414H27.8577V10.7157H25.7202V8.56414H23.5687V6.42664H21.4312V8.56414H19.2937V10.7157H17.1421V8.56414H15.0046V6.42664H12.853ZM25.7202 12.8532H27.8577V14.9907H25.7202V12.8532ZM21.4312 12.8532H23.5687V14.9907H21.4312V12.8532ZM17.1421 12.8532H19.2937V14.9907H17.1421V12.8532Z" fill="#182232"/>
<path id="Vector_9" d="M12.8532 2.1377H10.7157V4.28926H12.8532V2.1377Z" fill="#182232"/>
<path id="Vector_10" d="M10.7159 0H8.57837V2.1375H10.7159V0Z" fill="#182232"/>
<path id="Vector_11" d="M10.715 38.5736H6.42595V36.422H10.715V29.9955H4.28845V32.147H8.57751V34.2845H4.28845V40.7111H10.715V38.5736Z" fill="#182232"/>
<path id="Vector_12" d="M8.57751 8.56433H4.28845V10.7159H8.57751V8.56433Z" fill="#182232"/>
</g>
</g>
<defs>
<clipPath id="clip0_23_204">
<rect width="45" height="45" fill="white"/>
</clipPath>
</defs>
</svg>
