<svg width="60" height="60" viewBox="0 0 60 60" fill="none" xmlns="http://www.w3.org/2000/svg">
<g id="Group 645">
<rect id="Rectangle 1" width="59.9936" height="59.4189" rx="11.3389" fill="#182232"/>
<g id="Group 672">
<g id="Group 643">
<g id="Vector 89">
<path d="M41.7472 24.1224L42.6285 22.5371L43.5893 24.1224L49.7595 33.9462L42.6529 37.9175L35.6857 33.9462L41.7472 24.1224Z" fill="white"/>
<path d="M42.6529 39.8683L36.5914 36.5937L42.6529 45.6511L48.6762 36.4824L42.6529 39.8683Z" fill="white"/>
</g>
<path id="Vector 2" d="M42.6535 37.9117V23.7391V22.5596L49.7832 33.9392L42.6535 37.9117Z" fill="#F4F4F4"/>
<path id="Vector 3" d="M42.6596 45.6375L42.7061 39.8954L48.6909 36.4607L42.6596 45.6375Z" fill="#F4F4F4"/>
</g>
<g id="Group 644">
<path id="Union" d="M21.136 11.8714V13.5902H21.1385L21.1381 15.4356H16.6618L16.6618 15.4413H15.9135L13.4676 20.5839H21.1387V22.6332H21.1361L21.1387 39.9909C21.1387 42.3882 19.1953 44.3316 16.798 44.3316H15.4403L12.5388 48.5997H37.6257L34.6447 44.3316H31.3628C28.9655 44.3316 27.0221 42.3882 27.0221 39.9909L27.0196 24.8073C27.0813 22.4774 28.9789 20.605 31.3187 20.5839H47.7114L44.8326 15.4413H32.4358L32.4358 15.4356L27.0174 15.4356L27.0178 13.5902H27.0195V9.88818L21.136 11.8714Z" fill="white"/>
<path id="Union_2" d="M24.3568 10.7863V44.1669C24.4104 43.2335 25.043 40.8144 26.996 39.7826V29.0461L27.0581 29.0657V24.904C27.0581 22.5067 29.0015 20.5633 31.3988 20.5633H47.7295L46.1808 17.8595H30.2597C28.0345 17.8595 26.996 19.4434 26.996 19.4434L27.0423 9.87671L24.3568 10.7863Z" fill="#F4F4F4"/>
<path id="Vector 95" d="M14.7863 17.8169L13.4366 20.5932H21.1463V17.8169H14.7863Z" fill="#F4F4F4"/>
</g>
</g>
</g>
</svg>
