<svg width="153" height="36" viewBox="0 0 153 36" fill="none" xmlns="http://www.w3.org/2000/svg">
<g id="6452a2f5d09c19d877bb8c19_starknet-logo 1" clip-path="url(#clip0_369_256)">
<path id="Vector" fill-rule="evenodd" clip-rule="evenodd" d="M0.423706 18.3542C0.423706 27.9583 8.10372 35.7438 17.5777 35.7438C27.0517 35.7438 34.7323 27.9583 34.7323 18.3542C34.7323 8.75001 27.0517 0.964478 17.5777 0.964478C8.10372 0.964478 0.423706 8.75001 0.423706 18.3542Z" fill="#0C0C4F"/>
<path id="Vector_2" fill-rule="evenodd" clip-rule="evenodd" d="M10.011 14.2574L10.4345 12.9311C10.5206 12.6614 10.7306 12.4515 10.9976 12.3687L12.3123 11.9589C12.4942 11.9026 12.4957 11.6423 12.3152 11.583L11.0065 11.1537C10.7409 11.0665 10.5338 10.8536 10.4517 10.5828L10.0479 9.25014C9.99235 9.06616 9.73562 9.06415 9.67708 9.24765L9.25363 10.5739C9.16755 10.8431 8.95755 11.053 8.69049 11.1363L7.37584 11.5456C7.19388 11.6024 7.1919 11.8622 7.37289 11.9215L8.68163 12.3508C8.94722 12.438 9.15429 12.6514 9.23641 12.9222L9.64021 14.2544C9.69577 14.4389 9.9525 14.4408 10.011 14.2574Z" fill="#FAFAFA"/>
<path id="Vector_3" fill-rule="evenodd" clip-rule="evenodd" d="M30.7902 13.4854C30.2485 12.871 29.4025 12.5251 28.5802 12.3832C27.7513 12.247 26.8821 12.2596 26.0639 12.407C24.4082 12.6909 22.904 13.3859 21.5921 14.2433C20.9109 14.664 20.3299 15.1509 19.728 15.6468C19.4379 15.8976 19.1735 16.1646 18.8981 16.4278L18.1457 17.1868C17.3281 18.0531 16.5222 18.8422 15.7425 19.4963C14.9597 20.1474 14.2277 20.6418 13.5064 20.9871C12.7856 21.3342 12.0143 21.5383 11.0089 21.571C10.0124 21.6066 8.8334 21.4243 7.57228 21.1234C6.30438 20.8238 4.97295 20.3967 3.48511 20.0292C4.00425 21.4892 4.78601 22.7794 5.78971 23.9588C6.80518 25.1178 8.07321 26.1742 9.70213 26.8689C11.3075 27.579 13.325 27.8339 15.2114 27.4494C17.1028 27.0802 18.7626 26.1929 20.1042 25.1669C21.4493 24.1303 22.5375 22.9496 23.4549 21.7218C23.7081 21.3827 23.8421 21.1928 24.0254 20.9277L24.532 20.1671C24.884 19.6966 25.2045 19.1609 25.553 18.6947C26.2361 17.7184 26.9095 16.7433 27.692 15.8448C28.0859 15.3891 28.5013 14.9533 28.9916 14.5344C29.2364 14.3299 29.5004 14.1298 29.7931 13.9496C30.0902 13.7552 30.4039 13.603 30.7902 13.4854Z" fill="#EC796B"/>
<path id="Vector_4" fill-rule="evenodd" clip-rule="evenodd" d="M30.7902 13.4854C30.2081 11.9961 29.1256 10.7424 27.6729 9.81723C26.2287 8.90226 24.2232 8.43533 22.2359 8.83336C21.254 9.02586 20.3028 9.39646 19.468 9.88998C18.6371 10.3816 17.8924 10.9733 17.2478 11.6081C16.926 11.9266 16.6339 12.2588 16.3437 12.5929L15.5916 13.565L14.4299 15.1299C12.9489 17.1432 11.3541 19.5027 8.7369 20.2019C6.1676 20.8883 5.05325 20.2804 3.48511 20.0293C3.77184 20.7797 4.127 21.5085 4.60852 22.1496C5.08104 22.8037 5.63916 23.4181 6.33307 23.9446C6.68373 24.1975 7.05396 24.4472 7.46516 24.6589C7.87448 24.8634 8.31589 25.0435 8.78704 25.1791C9.72423 25.4395 10.7793 25.5306 11.8009 25.3906C12.823 25.2524 13.7999 24.924 14.6539 24.4879C15.5141 24.056 16.2635 23.5299 16.9326 22.9747C18.2627 21.8549 19.2973 20.6177 20.1712 19.367C20.6108 18.7417 21.0098 18.1046 21.3789 17.4674L21.8132 16.7087C21.946 16.4869 22.0803 16.2638 22.2168 16.056C22.767 15.221 23.3053 14.5516 23.9591 14.0491C24.6038 13.5336 25.5017 13.1527 26.7014 13.0642C27.8962 12.9747 29.2754 13.1401 30.7902 13.4854Z" fill="#FAFAFA"/>
<path id="Vector_5" fill-rule="evenodd" clip-rule="evenodd" d="M24.3265 25.86C24.3265 26.9538 25.2018 27.8412 26.2808 27.8412C27.36 27.8412 28.234 26.9538 28.234 25.86C28.234 24.7662 27.36 23.8789 26.2808 23.8789C25.2018 23.8789 24.3265 24.7662 24.3265 25.86Z" fill="#EC796B"/>
<path id="Vector_6" d="M150.346 13.4915V11.4911C150.346 11.4118 150.283 11.3475 150.204 11.3475H138.961C138.883 11.3475 138.819 11.4118 138.819 11.4911V13.4915H143.389V26.4328H145.776V13.4915H150.346Z" fill="#0C0C4F"/>
<path id="Vector_7" d="M127.068 11.3475C126.99 11.3475 126.926 11.4118 126.926 11.4911V26.2891C126.926 26.3683 126.99 26.4328 127.068 26.4328H136.53C136.608 26.4328 136.671 26.3683 136.671 26.2891V24.3099H129.314V19.569H135.393V17.4888H129.314V13.4703H136.148V11.4911C136.148 11.4118 136.084 11.3475 136.006 11.3475H127.068Z" fill="#0C0C4F"/>
<path id="Vector_8" d="M121.581 26.345L121.633 26.4328H123.467C123.545 26.4328 123.609 26.3683 123.609 26.2891V11.4911C123.609 11.4118 123.545 11.3475 123.467 11.3475H121.263V21.7949C120.88 21.1773 120.436 20.4975 119.93 19.7556C119.286 18.7901 118.593 17.8107 117.851 16.8173C117.123 15.8098 116.381 14.8376 115.625 13.9007C114.882 12.949 114.18 12.1166 113.52 11.4041L113.467 11.3475H111.741C111.663 11.3475 111.6 11.4118 111.6 11.4911V26.2891C111.6 26.3683 111.663 26.4328 111.741 26.4328H113.945V15.2409C114.246 15.6017 114.567 16.0015 114.907 16.4404C115.367 17.0336 115.841 17.6693 116.329 18.3478L116.33 18.3485L116.33 18.3492C116.818 19.0131 117.306 19.7054 117.794 20.4261L117.794 20.427L117.795 20.428C118.297 21.1491 118.778 21.8629 119.238 22.5696L119.238 22.5703L119.239 22.571C119.699 23.263 120.123 23.9337 120.513 24.5829L120.514 24.584L120.515 24.5853C120.919 25.2358 121.275 25.8224 121.581 26.345Z" fill="#0C0C4F"/>
<path id="Vector_9" d="M108.716 11.648L108.77 11.5879C108.853 11.4957 108.788 11.3475 108.665 11.3475H106.051L105.998 11.4098C105.651 11.8178 105.22 12.2973 104.704 12.8485C104.202 13.3861 103.664 13.9522 103.092 14.5466C102.52 15.1409 101.941 15.7351 101.354 16.3293C100.886 16.7933 100.448 17.221 100.042 17.6123V11.3475H97.7962C97.718 11.3475 97.6546 11.4118 97.6546 11.4911V26.2891C97.6546 26.3683 97.718 26.4328 97.7962 26.4328H100.042V19.5892C100.535 19.9164 101.039 20.2992 101.554 20.7381L101.554 20.7388L101.555 20.7394C102.179 21.2592 102.789 21.8285 103.386 22.4474L103.387 22.4489L103.388 22.4504C103.998 23.0548 104.574 23.6942 105.115 24.3689L105.115 24.3696L105.116 24.3705C105.657 25.0311 106.134 25.6908 106.549 26.3498L106.601 26.4328H109.149C109.258 26.4328 109.326 26.3133 109.272 26.2175L109.242 26.1638C108.859 25.4891 108.379 24.781 107.803 24.0392C107.24 23.2984 106.636 22.5723 105.99 21.8605C105.344 21.1485 104.684 20.4791 104.009 19.8522C103.398 19.2843 102.814 18.7968 102.258 18.3902C102.731 17.9219 103.233 17.4189 103.763 16.8815C104.351 16.2859 104.938 15.6834 105.525 15.0737C106.127 14.4499 106.7 13.8472 107.246 13.2658L107.247 13.265L107.248 13.2642C107.793 12.6689 108.282 12.1301 108.716 11.648Z" fill="#0C0C4F"/>
<path id="Vector_10" fill-rule="evenodd" clip-rule="evenodd" d="M84.1021 11.2345C84.0239 11.2345 83.9605 11.2988 83.9605 11.3781V26.2981C83.9605 26.3776 84.0239 26.4418 84.1021 26.4418H86.1252V20.9561H89.0805C89.4129 21.3597 89.7371 21.7819 90.0535 22.2229L90.0546 22.2245L90.0559 22.2262C90.5731 22.9137 91.0511 23.6308 91.4899 24.3779L91.4903 24.3786L91.4908 24.3795C91.8882 25.0405 92.2349 25.6934 92.5313 26.3382L92.5789 26.4418H94.9729C95.0756 26.4418 95.144 26.3346 95.1014 26.24C94.8261 25.6285 94.5277 25.0295 94.1964 24.4462C93.746 23.6308 93.252 22.8235 92.7146 22.0244C92.4073 21.5677 92.0936 21.124 91.7733 20.6934C92.6662 20.4166 93.3728 19.9162 93.8837 19.1898L93.8841 19.1892C94.4976 18.3101 94.8016 17.2762 94.8016 16.0953C94.8016 15.2838 94.6624 14.5412 94.3807 13.8703C94.098 13.1896 93.6726 12.6251 93.1059 12.1797C92.5431 11.732 91.8497 11.4471 91.033 11.3194C90.8426 11.2838 90.6459 11.2625 90.4431 11.2552C90.245 11.2414 90.0722 11.2344 89.9252 11.2344C89.3046 11.2344 88.6838 11.2343 88.0632 11.2342C86.7427 11.2341 85.4225 11.234 84.1021 11.2345ZM92.5963 16.0953C92.5963 16.4872 92.532 16.8729 92.4026 17.253C92.2762 17.6181 92.0742 17.9382 91.7952 18.2147C91.5307 18.4766 91.182 18.6623 90.7401 18.7662C90.6001 18.7984 90.4494 18.8213 90.2874 18.8344L90.2872 18.8345L90.2869 18.8345C90.1278 18.8479 89.9871 18.8545 89.8642 18.8545H86.1252V13.336H89.8642C89.9871 13.336 90.1278 13.3426 90.2869 13.356L90.2906 13.3563L90.2945 13.3565C90.452 13.3629 90.5979 13.3852 90.7332 13.4225L90.7375 13.4237L90.7421 13.4247C91.1822 13.5217 91.5299 13.7068 91.7937 13.9743L91.7943 13.975L91.7952 13.9758C92.0738 14.2519 92.2758 14.5751 92.4026 14.9473V14.9478L92.4028 14.9483C92.5318 15.3211 92.5963 15.7032 92.5963 16.0953Z" fill="#0C0C4F"/>
<path id="Vector_11" fill-rule="evenodd" clip-rule="evenodd" d="M78.649 24.4411L78.6492 24.4418L78.6494 24.4424C78.8594 25.0531 79.0835 25.6778 79.3217 26.3166L79.3649 26.4328H81.7598C81.8581 26.4328 81.9265 26.3338 81.8929 26.24C81.3698 24.783 80.8417 23.3277 80.3029 21.8766C79.8135 20.544 79.331 19.2819 78.8553 18.0906C78.3936 16.8992 77.9317 15.7642 77.4699 14.6858C77.0065 13.5897 76.5188 12.5045 76.0109 11.429C75.9872 11.3792 75.9377 11.3475 75.8832 11.3475H73.973C73.9185 11.3475 73.8688 11.3792 73.8453 11.429C73.3372 12.5046 72.8497 13.5898 72.3864 14.6859C71.9245 15.7639 71.4559 16.8985 70.9804 18.0897L70.9799 18.0905L70.9797 18.0914C70.518 19.2824 70.0425 20.5441 69.5533 21.8765C69.0143 23.3277 68.4862 24.783 67.9631 26.24C67.9295 26.3338 67.9979 26.4328 68.0963 26.4328H70.3889L70.3891 26.4326H70.4338L70.4864 26.3754C71.0394 25.7735 71.6576 25.1827 72.3412 24.6034L72.3418 24.6029L72.3425 24.6023C73.0287 24.0084 73.7441 23.4576 74.4887 22.9498L74.4905 22.9487L74.492 22.9473C75.2255 22.422 75.9638 21.9505 76.7066 21.5329L76.7075 21.5324L76.7084 21.5319C76.9759 21.3775 77.2393 21.2338 77.4985 21.1005L77.9997 22.5517L78.0001 22.5528C78.2234 23.1895 78.4396 23.8188 78.649 24.4411ZM76.0726 17.2855L76.073 17.2867L76.0734 17.288C76.2752 17.8056 76.4769 18.3319 76.6786 18.867C76.6636 18.8737 76.6482 18.8807 76.6326 18.8879C75.9227 19.2157 75.1597 19.6394 74.3439 20.1581C73.5628 20.6548 72.7878 21.1943 72.0192 21.7767L72.3447 20.8344C72.7753 19.6097 73.2058 18.4271 73.6364 17.2867C74.0323 16.2582 74.4446 15.269 74.8733 14.3189C75.2893 15.2686 75.6891 16.2574 76.0726 17.2855Z" fill="#0C0C4F"/>
<path id="Vector_12" d="M68.5477 13.4915V11.4911C68.5477 11.4118 68.4843 11.3475 68.4059 11.3475H57.1625C57.0843 11.3475 57.0209 11.4118 57.0209 11.4911V13.4915H61.5904V26.2891C61.5904 26.3683 61.6538 26.4328 61.7322 26.4328H63.8363C63.9145 26.4328 63.9779 26.3683 63.9779 26.2891V13.4915H68.5477Z" fill="#0C0C4F"/>
<path id="Vector_13" d="M46.7042 26.2493L46.7035 26.249C45.8376 25.8748 45.1173 25.3406 44.5462 24.6459L44.5456 24.645L44.5449 24.6443C43.9797 23.9408 43.6125 23.1114 43.442 22.1604C43.4336 22.1128 43.4442 22.0638 43.4718 22.0244C43.4994 21.9849 43.5415 21.9585 43.5886 21.951L45.4932 21.6467C45.5833 21.6323 45.6695 21.6897 45.6921 21.7793C45.9236 22.6909 46.4 23.3984 47.1222 23.9113C47.8553 24.4198 48.7197 24.6767 49.7229 24.6767C50.3737 24.6767 50.9552 24.5748 51.47 24.3742C51.9907 24.1669 52.3951 23.8761 52.6902 23.5054C52.9805 23.1409 53.1271 22.7092 53.1271 22.2017C53.1271 21.8867 53.0719 21.6288 52.9696 21.4216C52.9688 21.4197 52.9679 21.4179 52.967 21.416C52.8676 21.1952 52.7286 21.0108 52.5495 20.8606C52.5477 20.8592 52.546 20.8577 52.5445 20.8562C52.3647 20.6935 52.1582 20.5559 51.9243 20.4439C51.685 20.3294 51.4355 20.2349 51.1756 20.1606L51.1732 20.1599L47.3743 19.0161C46.9513 18.8875 46.5424 18.7267 46.1476 18.5337L46.1466 18.5332L46.1453 18.5326C45.7444 18.3293 45.3853 18.0783 45.0687 17.7794L45.0678 17.7784L45.0671 17.7779C44.7462 17.4673 44.4917 17.0981 44.3035 16.6722L44.303 16.6712C44.1115 16.2309 44.0188 15.719 44.0188 15.1403C44.0188 14.2126 44.2552 13.4115 44.7362 12.7468L44.7364 12.7465C45.2194 12.0815 45.8706 11.5762 46.6836 11.2291C47.4957 10.8825 48.4066 10.7148 49.4137 10.7219C50.4343 10.729 51.3523 10.9146 52.1645 11.2828C52.9829 11.6436 53.6617 12.1645 54.1976 12.8454C54.7417 13.5278 55.1046 14.3421 55.2889 15.2838C55.2983 15.3312 55.2883 15.3804 55.2614 15.4202C55.2344 15.4601 55.1927 15.4872 55.1458 15.4955L53.1896 15.8418C53.1431 15.85 53.0956 15.8391 53.0571 15.8116C53.0185 15.7841 52.9924 15.7422 52.9846 15.6951C52.8858 15.1075 52.6665 14.6092 52.3291 14.1949L52.3271 14.1925C51.9936 13.7681 51.5754 13.443 51.0694 13.2166L51.0677 13.2158C50.5606 12.9821 50.0022 12.8609 49.3898 12.8541H49.3896C48.8027 12.8474 48.278 12.942 47.8129 13.1346C47.3465 13.3277 46.9826 13.5942 46.7142 13.9311L46.7131 13.9324C46.4497 14.2565 46.3188 14.6287 46.3188 15.0564C46.3188 15.4811 46.4382 15.8086 46.6642 16.0563C46.9081 16.3164 47.208 16.5264 47.5667 16.6853C47.9469 16.8435 48.3158 16.9738 48.6739 17.0766L48.6748 17.0768L51.5098 17.9054C51.8403 17.9982 52.2177 18.1258 52.6415 18.2878C53.0851 18.4547 53.5129 18.6898 53.9246 18.992C54.3485 19.2959 54.6966 19.7017 54.9699 20.2049C55.2509 20.7148 55.3856 21.3488 55.3856 22.0968C55.3856 22.8487 55.2357 23.5245 54.9313 24.1198C54.636 24.7112 54.2212 25.2081 53.6892 25.6089L53.6879 25.6098C53.159 26.0012 52.5464 26.2966 51.8529 26.4976C51.1589 26.7056 50.4175 26.809 49.6298 26.809C48.5538 26.809 47.5775 26.6237 46.7042 26.2493Z" fill="#0C0C4F"/>
</g>
<defs>
<clipPath id="clip0_369_256">
<rect width="152" height="35" fill="white" transform="translate(0.388062 0.90686)"/>
</clipPath>
</defs>
</svg>
